<svg width="14" height="14" viewBox="0 0 14 14" fill="none" xmlns="http://www.w3.org/2000/svg">
<path d="M10.9999 2.99967C10.5933 2.99967 10.2199 2.76634 10.0333 2.40634L9.5533 1.43967C9.2466 0.833008 8.44662 0.333008 7.76661 0.333008H6.23995C5.55328 0.333008 4.75328 0.833008 4.44662 1.43967L3.96662 2.40634C3.77995 2.76634 3.40662 2.99967 2.99995 2.99967C1.55328 2.99967 0.406619 4.21967 0.499949 5.65967L0.846619 11.1663C0.926619 12.5397 1.66662 13.6663 3.50662 13.6663H10.4933C12.3333 13.6663 13.0666 12.5397 13.1533 11.1663L13.4999 5.65967C13.5933 4.21967 12.4466 2.99967 10.9999 2.99967ZM5.99995 3.83301H7.99995C8.27328 3.83301 8.49995 4.05967 8.49995 4.33301C8.49995 4.60634 8.27328 4.83301 7.99995 4.83301H5.99995C5.72662 4.83301 5.49995 4.60634 5.49995 4.33301C5.49995 4.05967 5.72662 3.83301 5.99995 3.83301ZM6.99995 11.0797C5.75995 11.0797 4.74661 10.073 4.74661 8.82634C4.74661 7.57967 5.75328 6.57301 6.99995 6.57301C8.24662 6.57301 9.2533 7.57967 9.2533 8.82634C9.2533 10.073 8.23995 11.0797 6.99995 11.0797Z" fill="white"/>
</svg>
