<svg width="24" height="16" viewBox="0 0 24 16" fill="none" xmlns="http://www.w3.org/2000/svg">
<path d="M10.2799 2.536L10.4351 2.58401C10.4544 2.5898 10.4711 2.60225 10.4824 2.61926C10.4938 2.63626 10.499 2.65677 10.4973 2.67729L10.4892 2.7644C10.4872 2.78757 10.4764 2.80901 10.4592 2.82413C10.4419 2.83925 10.4196 2.84686 10.397 2.84533L10.2599 2.83573C10.2392 2.83434 10.2197 2.82543 10.2048 2.81059C10.19 2.79575 10.1808 2.77596 10.179 2.7548L10.1683 2.6286C10.1671 2.61413 10.1694 2.59959 10.175 2.58626C10.1806 2.57292 10.1892 2.56117 10.2003 2.55205C10.2113 2.54293 10.2243 2.53669 10.2382 2.5339C10.252 2.5311 10.2664 2.53182 10.2799 2.536Z" fill="#384354"/>
<path d="M4.91284 2.6066C4.91292 2.59876 4.91451 2.59102 4.91752 2.58381C4.92052 2.57661 4.92488 2.57008 4.93035 2.5646C4.93581 2.55913 4.94228 2.55481 4.94937 2.55189C4.95646 2.54897 4.96404 2.54752 4.97168 2.54761L5.08871 2.54898C5.12732 2.5496 5.16413 2.56324 5.19109 2.5869C5.21804 2.61056 5.23293 2.64231 5.23249 2.67518V2.71359C5.23227 2.72992 5.22828 2.74604 5.22073 2.76102C5.21318 2.776 5.20223 2.78954 5.1885 2.80089C5.17477 2.81223 5.15854 2.82114 5.14072 2.82711C5.12291 2.83308 5.10387 2.83599 5.0847 2.83568L4.96767 2.83431C4.96003 2.83422 4.95248 2.83259 4.94546 2.8295C4.93843 2.82642 4.93207 2.82195 4.92673 2.81635C4.92139 2.81074 4.91718 2.80411 4.91433 2.79684C4.91149 2.78957 4.91007 2.78179 4.91016 2.77395L4.91284 2.6066Z" fill="#384354"/>
<path d="M3.3087 2.61631C3.3087 2.60049 3.31483 2.58531 3.32574 2.57412C3.33665 2.56293 3.35145 2.55664 3.36688 2.55664H3.40901C3.44608 2.55681 3.48275 2.56477 3.51692 2.58006C3.5511 2.59536 3.58211 2.61769 3.60819 2.64578C3.63428 2.67386 3.65491 2.70716 3.66893 2.74377C3.68295 2.78037 3.69006 2.81957 3.68988 2.85911L3.68854 3.07311C3.68817 3.15295 3.65809 3.22938 3.60492 3.28559C3.55175 3.3418 3.47984 3.37318 3.405 3.37283H3.36287C3.35517 3.37284 3.34755 3.37127 3.34045 3.36823C3.33335 3.36519 3.3269 3.36073 3.32149 3.35512C3.31608 3.3495 3.31181 3.34284 3.30893 3.33552C3.30604 3.3282 3.3046 3.32037 3.30469 3.31248L3.3087 2.61631Z" fill="#384354"/>
<path d="M9.71447 12.0705C9.71476 12.2451 9.64741 12.4127 9.52723 12.5364C9.40704 12.6601 9.24387 12.7298 9.07361 12.7301L3.64085 12.7398C3.47059 12.7401 3.30718 12.671 3.18657 12.5478C3.06597 12.4245 2.99805 12.2571 2.99775 12.0825L2.98828 6.51868C2.98799 6.34405 3.05534 6.17645 3.17552 6.05276C3.29571 5.92906 3.45888 5.8594 3.62914 5.85909L9.0619 5.84937C9.23216 5.84906 9.39557 5.91814 9.51618 6.04141C9.63678 6.16467 9.7047 6.33203 9.705 6.50666L9.71447 12.0705ZM7.40663 8.27125C7.40663 7.98439 7.29552 7.70927 7.09775 7.50643C6.89998 7.30358 6.63174 7.18963 6.35204 7.18963C6.07235 7.18963 5.80411 7.30358 5.60634 7.50643C5.40856 7.70927 5.29746 7.98439 5.29746 8.27125C5.29746 8.55812 5.40856 8.83324 5.60634 9.03608C5.80411 9.23893 6.07235 9.35288 6.35204 9.35288C6.63174 9.35288 6.89998 9.23893 7.09775 9.03608C7.29552 8.83324 7.40663 8.55812 7.40663 8.27125ZM5.43187 9.84809C4.80193 10.1067 4.29837 10.6279 4.26494 11.3412C4.26437 11.3521 4.26792 11.3627 4.2748 11.3707C4.28169 11.3788 4.29136 11.3838 4.30172 11.3845C4.83202 11.427 5.36099 11.3769 5.8525 11.3893C6.34647 11.4011 6.84044 11.3998 7.33441 11.3851C7.68616 11.3748 8.05263 11.4249 8.40906 11.4016C8.42377 11.4007 8.43113 11.3925 8.43113 11.3769C8.424 10.9992 8.29783 10.6746 8.05263 10.403C7.39259 9.67319 6.32396 9.48252 5.43187 9.84809Z" fill="#384354"/>
<path d="M20.9018 6.82031H11.5034C11.4794 6.82031 11.46 6.84027 11.46 6.86489V7.64542C11.46 7.67005 11.4794 7.69 11.5034 7.69H20.9018C20.9258 7.69 20.9452 7.67005 20.9452 7.64542V6.86489C20.9452 6.84027 20.9258 6.82031 20.9018 6.82031Z" fill="#384354"/>
<path d="M20.9071 8.87012H11.4981C11.477 8.87012 11.46 8.88762 11.46 8.90921V9.68974C11.46 9.71133 11.477 9.72884 11.4981 9.72884H20.9071C20.9282 9.72884 20.9452 9.71133 20.9452 9.68974V8.90921C20.9452 8.88762 20.9282 8.87012 20.9071 8.87012Z" fill="#384354"/>
<path d="M16.117 10.9082L11.5308 10.9C11.4917 10.9 11.4599 10.9325 11.4598 10.9726L11.4586 11.6845C11.4586 11.7247 11.4902 11.7573 11.5294 11.7574L16.1155 11.7656C16.1547 11.7657 16.1865 11.7332 16.1865 11.693L16.1878 10.9811C16.1878 10.9409 16.1561 10.9083 16.117 10.9082Z" fill="#384354"/>
<path fill-rule="evenodd" clip-rule="evenodd" d="M22.5429 14.5029C22.7077 14.3323 22.8002 14.1009 22.8002 13.8596V2.14075C22.8002 1.89946 22.7077 1.66805 22.5429 1.49743C22.3782 1.32681 22.1548 1.23096 21.9218 1.23096H2.07857C1.84561 1.23096 1.6222 1.32681 1.45747 1.49743C1.29274 1.66805 1.2002 1.89946 1.2002 2.14075V13.8596C1.2002 14.1009 1.29274 14.3323 1.45747 14.5029C1.6222 14.6736 1.84561 14.7694 2.07857 14.7694H21.9218C22.1548 14.7694 22.3782 14.6736 22.5429 14.5029ZM4.68237 4.53647C8.29593 4.53555 11.8728 4.53671 15.413 4.53993C16.8848 4.54131 18.3881 4.54384 19.923 4.54753C20.4118 4.54891 20.8894 4.66013 21.2822 4.93853C21.7771 5.28808 22.1017 5.73871 22.256 6.29044C22.3258 6.54097 22.3593 6.94924 22.3567 7.51524C22.3473 9.60977 22.3467 11.7034 22.3547 13.7961C22.3556 14.0609 22.2537 14.2191 22.0492 14.2707C22.0127 14.2799 21.8511 14.2845 21.5643 14.2845C14.8463 14.2849 8.39508 14.2838 2.21063 14.281C2.04834 14.281 1.93296 14.261 1.86448 14.2209C1.73643 14.1463 1.65506 14.0012 1.65506 13.8486C1.65728 11.5606 1.65728 9.29246 1.65506 7.04411C1.65372 5.93744 2.32068 4.933 3.35646 4.63388C3.58011 4.56894 4.02208 4.53647 4.68237 4.53647Z" fill="#384354"/>
<path d="M7.168 3.49316V2.08316H7.552V3.49316H7.168ZM7.8887 3.49316V2.08316H8.5087C8.66604 2.08316 8.80004 2.11116 8.9107 2.16716C9.02137 2.22316 9.10604 2.30383 9.1647 2.40916C9.2247 2.51316 9.2547 2.63916 9.2547 2.78716C9.2547 2.93516 9.2247 3.06183 9.1647 3.16716C9.10604 3.2725 9.0207 3.35316 8.9087 3.40916C8.79804 3.46516 8.6647 3.49316 8.5087 3.49316H7.8887ZM8.2727 3.17516H8.4807C8.60337 3.17516 8.69737 3.1425 8.7627 3.07716C8.82937 3.0105 8.8627 2.91383 8.8627 2.78716C8.8627 2.6605 8.82937 2.5645 8.7627 2.49916C8.69737 2.43383 8.60337 2.40116 8.4807 2.40116H8.2727V3.17516ZM10.8796 3.51716C10.7316 3.51716 10.6023 3.4885 10.4916 3.43116C10.381 3.3725 10.2943 3.2885 10.2316 3.17916C10.1703 3.06983 10.1396 2.93916 10.1396 2.78716C10.1396 2.63516 10.1703 2.50516 10.2316 2.39716C10.2943 2.28916 10.381 2.2065 10.4916 2.14916C10.6023 2.0905 10.7316 2.06116 10.8796 2.06116C10.9783 2.06116 11.069 2.07316 11.1516 2.09716C11.2343 2.11983 11.3023 2.15516 11.3556 2.20316L11.2416 2.49916C11.183 2.45783 11.1256 2.42983 11.0696 2.41516C11.015 2.39916 10.957 2.39116 10.8956 2.39116C10.7876 2.39116 10.6996 2.42383 10.6316 2.48916C10.565 2.5545 10.5316 2.65316 10.5316 2.78516C10.5316 2.9185 10.5643 3.01916 10.6296 3.08716C10.6963 3.15383 10.785 3.18716 10.8956 3.18716C10.957 3.18716 11.015 3.17983 11.0696 3.16516C11.1256 3.14916 11.183 3.11983 11.2416 3.07716L11.3556 3.37316C11.3023 3.42116 11.2343 3.45716 11.1516 3.48116C11.069 3.50516 10.9783 3.51716 10.8796 3.51716ZM11.4355 3.49316L12.0875 2.08316H12.4215L13.0735 3.49316H12.6795L12.5135 3.10716L12.6635 3.24916H11.8375L11.9875 3.10716L11.8235 3.49316H11.4355ZM12.2455 2.46316L12.0115 3.02316L11.9595 2.94116H12.5435L12.4915 3.02316L12.2595 2.46316H12.2455ZM13.2383 3.49316V2.08316H13.9323C14.103 2.08316 14.2336 2.12116 14.3243 2.19716C14.415 2.27316 14.4603 2.38116 14.4603 2.52116C14.4603 2.5945 14.445 2.65783 14.4143 2.71116C14.385 2.76316 14.3456 2.80516 14.2963 2.83716C14.2483 2.86916 14.195 2.89183 14.1363 2.90516L14.1383 2.91116L14.1643 2.91716C14.1923 2.92516 14.2183 2.9405 14.2423 2.96316C14.2676 2.9845 14.2923 3.01783 14.3163 3.06316L14.5463 3.49316H14.1263L13.9083 3.08116C13.8963 3.05983 13.883 3.04316 13.8683 3.03116C13.8536 3.01916 13.837 3.0105 13.8183 3.00516C13.7996 2.99983 13.7776 2.99716 13.7523 2.99716H13.6223V3.49316H13.2383ZM13.6223 2.71316H13.8863C13.953 2.71316 14.0023 2.69916 14.0343 2.67116C14.0676 2.64316 14.0843 2.60183 14.0843 2.54716C14.0843 2.49116 14.0676 2.44983 14.0343 2.42316C14.0023 2.39516 13.9523 2.38116 13.8843 2.38116H13.6223V2.71316ZM14.7637 3.49316V2.08316H15.3837C15.541 2.08316 15.675 2.11116 15.7857 2.16716C15.8964 2.22316 15.981 2.30383 16.0397 2.40916C16.0997 2.51316 16.1297 2.63916 16.1297 2.78716C16.1297 2.93516 16.0997 3.06183 16.0397 3.16716C15.981 3.2725 15.8957 3.35316 15.7837 3.40916C15.673 3.46516 15.5397 3.49316 15.3837 3.49316H14.7637ZM15.1477 3.17516H15.3557C15.4784 3.17516 15.5724 3.1425 15.6377 3.07716C15.7044 3.0105 15.7377 2.91383 15.7377 2.78716C15.7377 2.6605 15.7044 2.5645 15.6377 2.49916C15.5724 2.43383 15.4784 2.40116 15.3557 2.40116H15.1477V3.17516Z" fill="white"/>
</svg>
