<svg width="18" height="14" viewBox="0 0 18 14" fill="none" xmlns="http://www.w3.org/2000/svg">
<path d="M1.5 2.83366C1.5 2.39163 1.67559 1.96771 1.98816 1.65515C2.30072 1.34259 2.72464 1.16699 3.16667 1.16699H14.8333C15.2754 1.16699 15.6993 1.34259 16.0118 1.65515C16.3244 1.96771 16.5 2.39163 16.5 2.83366V11.167C16.5 11.609 16.3244 12.0329 16.0118 12.3455C15.6993 12.6581 15.2754 12.8337 14.8333 12.8337H3.16667C2.72464 12.8337 2.30072 12.6581 1.98816 12.3455C1.67559 12.0329 1.5 11.609 1.5 11.167V2.83366Z" stroke="#8294AE" stroke-width="1.5" stroke-linecap="round" stroke-linejoin="round"/>
<path d="M1.5 2.83302L9 7.83301L16.5 2.83302" stroke="#8294AE" stroke-width="1.5" stroke-linecap="round" stroke-linejoin="round"/>
</svg>
