<svg width="20" height="20" viewBox="0 0 20 20" fill="none" xmlns="http://www.w3.org/2000/svg">
<g clip-path="url(#clip0_10464_9909)">
<path d="M7.5 10C7.5 10.663 7.76339 11.2989 8.23223 11.7678C8.70107 12.2366 9.33696 12.5 10 12.5C10.663 12.5 11.2989 12.2366 11.7678 11.7678C12.2366 11.2989 12.5 10.663 12.5 10C12.5 9.33696 12.2366 8.70107 11.7678 8.23223C11.2989 7.76339 10.663 7.5 10 7.5C9.33696 7.5 8.70107 7.76339 8.23223 8.23223C7.76339 8.70107 7.5 9.33696 7.5 10Z" stroke="#D4DAE3" stroke-width="2" stroke-linecap="round" stroke-linejoin="round"/>
<path d="M3.33301 9.99967C3.33301 11.7678 4.03539 13.4635 5.28563 14.7137C6.53587 15.964 8.23156 16.6663 9.99967 16.6663C11.7678 16.6663 13.4635 15.964 14.7137 14.7137C15.964 13.4635 16.6663 11.7678 16.6663 9.99967C16.6663 8.23156 15.964 6.53587 14.7137 5.28563C13.4635 4.03539 11.7678 3.33301 9.99967 3.33301C8.23156 3.33301 6.53587 4.03539 5.28563 5.28563C4.03539 6.53587 3.33301 8.23156 3.33301 9.99967Z" stroke="#D4DAE3" stroke-width="2" stroke-linecap="round" stroke-linejoin="round"/>
<path d="M10 1.66699V3.33366" stroke="#D4DAE3" stroke-width="2" stroke-linecap="round" stroke-linejoin="round"/>
<path d="M10 16.667V18.3337" stroke="#D4DAE3" stroke-width="2" stroke-linecap="round" stroke-linejoin="round"/>
<path d="M16.667 10H18.3337" stroke="#D4DAE3" stroke-width="2" stroke-linecap="round" stroke-linejoin="round"/>
<path d="M1.66699 10H3.33366" stroke="#D4DAE3" stroke-width="2" stroke-linecap="round" stroke-linejoin="round"/>
</g>
<defs>
<clipPath id="clip0_10464_9909">
<rect width="20" height="20" fill="white"/>
</clipPath>
</defs>
</svg>
