<svg width="24" height="24" viewBox="0 0 24 24" fill="none" xmlns="http://www.w3.org/2000/svg">
<g clip-path="url(#clip0_10150_9219)">
<path d="M17 8.00018V5.00018C17 4.73497 16.8946 4.48061 16.7071 4.29308C16.5196 4.10554 16.2652 4.00018 16 4.00018H6C5.46957 4.00018 4.96086 4.2109 4.58579 4.58597C4.21071 4.96104 4 5.46975 4 6.00018M4 6.00018C4 6.53062 4.21071 7.03932 4.58579 7.4144C4.96086 7.78947 5.46957 8.00018 6 8.00018H18C18.2652 8.00018 18.5196 8.10554 18.7071 8.29308C18.8946 8.48061 19 8.73497 19 9.00018V12.0002M4 6.00018V18.0002C4 18.5306 4.21071 19.0393 4.58579 19.4144C4.96086 19.7895 5.46957 20.0002 6 20.0002H18C18.2652 20.0002 18.5196 19.8948 18.7071 19.7073C18.8946 19.5198 19 19.2654 19 19.0002V16.0002" stroke="#8294AE" stroke-width="1.5" stroke-linecap="round" stroke-linejoin="round"/>
<path d="M20 12.0002V16.0002H16C15.4696 16.0002 14.9609 15.7895 14.5858 15.4144C14.2107 15.0393 14 14.5306 14 14.0002C14 13.4698 14.2107 12.961 14.5858 12.586C14.9609 12.2109 15.4696 12.0002 16 12.0002H20Z" stroke="#8294AE" stroke-width="1.5" stroke-linecap="round" stroke-linejoin="round"/>
</g>
<defs>
<clipPath id="clip0_10150_9219">
<rect width="24" height="24" fill="white"/>
</clipPath>
</defs>
</svg>
