<svg width="19" height="19" viewBox="0 0 19 19" fill="none" xmlns="http://www.w3.org/2000/svg">
<path d="M13.1153 15.3239L17.3792 6.81737C20.2359 1.0898 17.8953 -1.25072 12.1749 1.61306L9.65048 2.87878L7.12611 1.61306C1.40562 -1.25072 -0.941976 1.09687 1.92181 6.81737L6.17152 15.3239C8.08778 19.1352 11.2061 19.1422 13.1153 15.3239ZM9.0848 11.7459L9.07066 6.35775C9.07066 6.14562 9.15551 5.96177 9.28986 5.82742C9.42421 5.69307 9.60806 5.60822 9.82019 5.60822C10.2303 5.60822 10.5697 5.94763 10.5697 6.35775L10.5839 11.7459C10.5839 12.156 10.2445 12.4954 9.83433 12.4954C9.42421 12.4954 9.0848 12.156 9.0848 11.7459Z" fill="#45A245"/>
</svg>
