<svg width="24" height="24" viewBox="0 0 24 24" fill="none" xmlns="http://www.w3.org/2000/svg">
<path d="M8.18145 5.68004L3.91759 14.1865C1.06088 19.9141 3.4014 22.2546 9.1219 19.3908L11.6463 18.1251L14.1706 19.3908C19.8911 22.2546 22.2387 19.907 19.3749 14.1865L15.1252 5.68005C13.209 1.86874 10.0906 1.86167 8.18145 5.68004ZM12.212 9.25801L12.2261 14.6462C12.2261 14.8583 12.1412 15.0421 12.0069 15.1765C11.8725 15.3108 11.6887 15.3957 11.4766 15.3957C11.0664 15.3957 10.727 15.0563 10.727 14.6462L10.7129 9.258C10.7129 8.84788 11.0523 8.50847 11.4624 8.50847C11.8725 8.50847 12.212 8.84788 12.212 9.25801Z" fill="#E26E00"/>
</svg>
